# xmcd
#
# Track frame offsets: 
#        150
#        16787
#        26037
#        45017
#        54442
#        69155
#        80172
#        97532
#        109305
#        126035
#        139122
#        156615
#
# Disc length: 2380 seconds
#
# Revision: 0
# Processed by: cddbd v1.5.1PL2 Copyright (c) Steve Scherf et al.
# Submitted via: ExactAudioCopy v0.95b4
#
DISCID=8f094a0c
DTITLE=The Cowslingers - Boot-n-Rally
DYEAR=2001
DGENRE=Punkabilly
TTITLE0=Waffle House Blues
TTITLE1=You're So Delicious Baby!
TTITLE2=Johnny's Head
TTITLE3=Broadcast Tower
TTITLE4=Gas Station food
TTITLE5=Monkey Boy
TTITLE6=Ain't A Big Deal
TTITLE7=Cleveland Steamer
TTITLE8=#1 Hit Record
TTITLE9=Beautiful Love song
TTITLE10=Dirty Sanchez
TTITLE11=Dead Man's Clothes
EXTD=
EXTT0=
EXTT1=
EXTT2=
EXTT3=
EXTT4=
EXTT5=
EXTT6=
EXTT7=
EXTT8=
EXTT9=
EXTT10=
EXTT11=
PLAYORDER=
